<?xml version="1.0" encoding="utf-8" standalone="no"?>
<!DOCTYPE svg PUBLIC "-//W3C//DTD SVG 1.1//EN"
  "http://www.w3.org/Graphics/SVG/1.1/DTD/svg11.dtd">
<svg xmlns:xlink="http://www.w3.org/1999/xlink" width="441.748312pt" height="326.263125pt" viewBox="0 0 441.748312 326.263125" xmlns="http://www.w3.org/2000/svg" version="1.1">
 <metadata>
  <rdf:RDF xmlns:dc="http://purl.org/dc/elements/1.1/" xmlns:cc="http://creativecommons.org/ns#" xmlns:rdf="http://www.w3.org/1999/02/22-rdf-syntax-ns#">
   <cc:Work>
    <dc:type rdf:resource="http://purl.org/dc/dcmitype/StillImage"/>
    <dc:date>2026-03-05T11:57:58.148278</dc:date>
    <dc:format>image/svg+xml</dc:format>
    <dc:creator>
     <cc:Agent>
      <dc:title>Matplotlib v3.10.8, https://matplotlib.org/</dc:title>
     </cc:Agent>
    </dc:creator>
   </cc:Work>
  </rdf:RDF>
 </metadata>
 <defs>
  <style type="text/css">*{stroke-linejoin: round; stroke-linecap: butt}</style>
 </defs>
 <g id="figure_1">
  <g id="patch_1">
   <path d="M 0 326.263125 
L 441.748312 326.263125 
L 441.748312 0 
L 0 0 
z
" style="fill: #ffffff"/>
  </g>
  <g id="axes_1">
   <g id="patch_2">
    <path d="M 73.888312 279.876 
L 434.548313 279.876 
L 434.548313 7.2 
L 73.888312 7.2 
z
" style="fill: #ffffff"/>
   </g>
   <g id="matplotlib.axis_1">
    <g id="xtick_1">
     <g id="line2d_1">
      <defs>
       <path id="m7137af406d" d="M 0 0 
L 0 4.8 
" style="stroke: #000000"/>
      </defs>
      <g>
       <use xlink:href="#m7137af406d" x="90.281949" y="279.876" style="stroke: #000000"/>
      </g>
     </g>
     <g id="text_1">
      <!-- 0.0 -->
      <g transform="translate(79.785886 298.205937) scale(0.132 -0.132)">
       <defs>
        <path id="DejaVuSans-30" d="M 2034 4250 
Q 1547 4250 1301 3770 
Q 1056 3291 1056 2328 
Q 1056 1369 1301 889 
Q 1547 409 2034 409 
Q 2525 409 2770 889 
Q 3016 1369 3016 2328 
Q 3016 3291 2770 3770 
Q 2525 4250 2034 4250 
z
M 2034 4750 
Q 2819 4750 3233 4129 
Q 3647 3509 3647 2328 
Q 3647 1150 3233 529 
Q 2819 -91 2034 -91 
Q 1250 -91 836 529 
Q 422 1150 422 2328 
Q 422 3509 836 4129 
Q 1250 4750 2034 4750 
z
" transform="scale(0.015625)"/>
        <path id="DejaVuSans-2e" d="M 684 794 
L 1344 794 
L 1344 0 
L 684 0 
L 684 794 
z
" transform="scale(0.015625)"/>
       </defs>
       <use xlink:href="#DejaVuSans-30"/>
       <use xlink:href="#DejaVuSans-2e" transform="translate(63.623047 0)"/>
       <use xlink:href="#DejaVuSans-30" transform="translate(95.410156 0)"/>
      </g>
     </g>
    </g>
    <g id="xtick_2">
     <g id="line2d_2">
      <g>
       <use xlink:href="#m7137af406d" x="131.26604" y="279.876" style="stroke: #000000"/>
      </g>
     </g>
     <g id="text_2">
      <!-- 0.5 -->
      <g transform="translate(120.769977 298.205937) scale(0.132 -0.132)">
       <defs>
        <path id="DejaVuSans-35" d="M 691 4666 
L 3169 4666 
L 3169 4134 
L 1269 4134 
L 1269 2991 
Q 1406 3038 1543 3061 
Q 1681 3084 1819 3084 
Q 2600 3084 3056 2656 
Q 3513 2228 3513 1497 
Q 3513 744 3044 326 
Q 2575 -91 1722 -91 
Q 1428 -91 1123 -41 
Q 819 9 494 109 
L 494 744 
Q 775 591 1075 516 
Q 1375 441 1709 441 
Q 2250 441 2565 725 
Q 2881 1009 2881 1497 
Q 2881 1984 2565 2268 
Q 2250 2553 1709 2553 
Q 1456 2553 1204 2497 
Q 953 2441 691 2322 
L 691 4666 
z
" transform="scale(0.015625)"/>
       </defs>
       <use xlink:href="#DejaVuSans-30"/>
       <use xlink:href="#DejaVuSans-2e" transform="translate(63.623047 0)"/>
       <use xlink:href="#DejaVuSans-35" transform="translate(95.410156 0)"/>
      </g>
     </g>
    </g>
    <g id="xtick_3">
     <g id="line2d_3">
      <g>
       <use xlink:href="#m7137af406d" x="172.250131" y="279.876" style="stroke: #000000"/>
      </g>
     </g>
     <g id="text_3">
      <!-- 1.0 -->
      <g transform="translate(161.754068 298.205937) scale(0.132 -0.132)">
       <defs>
        <path id="DejaVuSans-31" d="M 794 531 
L 1825 531 
L 1825 4091 
L 703 3866 
L 703 4441 
L 1819 4666 
L 2450 4666 
L 2450 531 
L 3481 531 
L 3481 0 
L 794 0 
L 794 531 
z
" transform="scale(0.015625)"/>
       </defs>
       <use xlink:href="#DejaVuSans-31"/>
       <use xlink:href="#DejaVuSans-2e" transform="translate(63.623047 0)"/>
       <use xlink:href="#DejaVuSans-30" transform="translate(95.410156 0)"/>
      </g>
     </g>
    </g>
    <g id="xtick_4">
     <g id="line2d_4">
      <g>
       <use xlink:href="#m7137af406d" x="213.234222" y="279.876" style="stroke: #000000"/>
      </g>
     </g>
     <g id="text_4">
      <!-- 1.5 -->
      <g transform="translate(202.738159 298.205937) scale(0.132 -0.132)">
       <use xlink:href="#DejaVuSans-31"/>
       <use xlink:href="#DejaVuSans-2e" transform="translate(63.623047 0)"/>
       <use xlink:href="#DejaVuSans-35" transform="translate(95.410156 0)"/>
      </g>
     </g>
    </g>
    <g id="xtick_5">
     <g id="line2d_5">
      <g>
       <use xlink:href="#m7137af406d" x="254.218312" y="279.876" style="stroke: #000000"/>
      </g>
     </g>
     <g id="text_5">
      <!-- 2.0 -->
      <g transform="translate(243.72225 298.205937) scale(0.132 -0.132)">
       <defs>
        <path id="DejaVuSans-32" d="M 1228 531 
L 3431 531 
L 3431 0 
L 469 0 
L 469 531 
Q 828 903 1448 1529 
Q 2069 2156 2228 2338 
Q 2531 2678 2651 2914 
Q 2772 3150 2772 3378 
Q 2772 3750 2511 3984 
Q 2250 4219 1831 4219 
Q 1534 4219 1204 4116 
Q 875 4013 500 3803 
L 500 4441 
Q 881 4594 1212 4672 
Q 1544 4750 1819 4750 
Q 2544 4750 2975 4387 
Q 3406 4025 3406 3419 
Q 3406 3131 3298 2873 
Q 3191 2616 2906 2266 
Q 2828 2175 2409 1742 
Q 1991 1309 1228 531 
z
" transform="scale(0.015625)"/>
       </defs>
       <use xlink:href="#DejaVuSans-32"/>
       <use xlink:href="#DejaVuSans-2e" transform="translate(63.623047 0)"/>
       <use xlink:href="#DejaVuSans-30" transform="translate(95.410156 0)"/>
      </g>
     </g>
    </g>
    <g id="xtick_6">
     <g id="line2d_6">
      <g>
       <use xlink:href="#m7137af406d" x="295.202403" y="279.876" style="stroke: #000000"/>
      </g>
     </g>
     <g id="text_6">
      <!-- 2.5 -->
      <g transform="translate(284.706341 298.205937) scale(0.132 -0.132)">
       <use xlink:href="#DejaVuSans-32"/>
       <use xlink:href="#DejaVuSans-2e" transform="translate(63.623047 0)"/>
       <use xlink:href="#DejaVuSans-35" transform="translate(95.410156 0)"/>
      </g>
     </g>
    </g>
    <g id="xtick_7">
     <g id="line2d_7">
      <g>
       <use xlink:href="#m7137af406d" x="336.186494" y="279.876" style="stroke: #000000"/>
      </g>
     </g>
     <g id="text_7">
      <!-- 3.0 -->
      <g transform="translate(325.690432 298.205937) scale(0.132 -0.132)">
       <defs>
        <path id="DejaVuSans-33" d="M 2597 2516 
Q 3050 2419 3304 2112 
Q 3559 1806 3559 1356 
Q 3559 666 3084 287 
Q 2609 -91 1734 -91 
Q 1441 -91 1130 -33 
Q 819 25 488 141 
L 488 750 
Q 750 597 1062 519 
Q 1375 441 1716 441 
Q 2309 441 2620 675 
Q 2931 909 2931 1356 
Q 2931 1769 2642 2001 
Q 2353 2234 1838 2234 
L 1294 2234 
L 1294 2753 
L 1863 2753 
Q 2328 2753 2575 2939 
Q 2822 3125 2822 3475 
Q 2822 3834 2567 4026 
Q 2313 4219 1838 4219 
Q 1578 4219 1281 4162 
Q 984 4106 628 3988 
L 628 4550 
Q 988 4650 1302 4700 
Q 1616 4750 1894 4750 
Q 2613 4750 3031 4423 
Q 3450 4097 3450 3541 
Q 3450 3153 3228 2886 
Q 3006 2619 2597 2516 
z
" transform="scale(0.015625)"/>
       </defs>
       <use xlink:href="#DejaVuSans-33"/>
       <use xlink:href="#DejaVuSans-2e" transform="translate(63.623047 0)"/>
       <use xlink:href="#DejaVuSans-30" transform="translate(95.410156 0)"/>
      </g>
     </g>
    </g>
    <g id="xtick_8">
     <g id="line2d_8">
      <g>
       <use xlink:href="#m7137af406d" x="377.170585" y="279.876" style="stroke: #000000"/>
      </g>
     </g>
     <g id="text_8">
      <!-- 3.5 -->
      <g transform="translate(366.674523 298.205937) scale(0.132 -0.132)">
       <use xlink:href="#DejaVuSans-33"/>
       <use xlink:href="#DejaVuSans-2e" transform="translate(63.623047 0)"/>
       <use xlink:href="#DejaVuSans-35" transform="translate(95.410156 0)"/>
      </g>
     </g>
    </g>
    <g id="xtick_9">
     <g id="line2d_9">
      <g>
       <use xlink:href="#m7137af406d" x="418.154676" y="279.876" style="stroke: #000000"/>
      </g>
     </g>
     <g id="text_9">
      <!-- 4.0 -->
      <g transform="translate(407.658614 298.205937) scale(0.132 -0.132)">
       <defs>
        <path id="DejaVuSans-34" d="M 2419 4116 
L 825 1625 
L 2419 1625 
L 2419 4116 
z
M 2253 4666 
L 3047 4666 
L 3047 1625 
L 3713 1625 
L 3713 1100 
L 3047 1100 
L 3047 0 
L 2419 0 
L 2419 1100 
L 313 1100 
L 313 1709 
L 2253 4666 
z
" transform="scale(0.015625)"/>
       </defs>
       <use xlink:href="#DejaVuSans-34"/>
       <use xlink:href="#DejaVuSans-2e" transform="translate(63.623047 0)"/>
       <use xlink:href="#DejaVuSans-30" transform="translate(95.410156 0)"/>
      </g>
     </g>
    </g>
    <g id="text_10">
     <!-- $\beta$ -->
     <g transform="translate(249.610313 316.039125) scale(0.144 -0.144)">
      <defs>
       <path id="DejaVuSans-Oblique-3b2" d="M 872 216 
L 572 -1331 
L -6 -1331 
L 928 3478 
Q 1206 4903 2538 4903 
Q 3888 4903 3659 3700 
Q 3503 2844 2894 2531 
Q 3713 2250 3553 1416 
Q 3272 -69 1759 -66 
Q 1097 -63 872 216 
z
M 1019 966 
Q 1259 422 1875 425 
Q 2775 425 2966 1406 
Q 3138 2288 1675 2219 
L 1778 2750 
Q 2909 2731 3106 3750 
Q 3241 4438 2509 4434 
Q 1691 4434 1503 3459 
L 1019 966 
z
" transform="scale(0.015625)"/>
      </defs>
      <use xlink:href="#DejaVuSans-Oblique-3b2" transform="translate(0 0.390625)"/>
     </g>
    </g>
   </g>
   <g id="matplotlib.axis_2">
    <g id="ytick_1">
     <g id="line2d_10">
      <defs>
       <path id="m73cc482074" d="M 0 0 
L -4.8 0 
" style="stroke: #000000"/>
      </defs>
      <g>
       <use xlink:href="#m73cc482074" x="73.888312" y="274.194938" style="stroke: #000000"/>
      </g>
     </g>
     <g id="text_11">
      <!-- −0.75 -->
      <g transform="translate(25.1365 279.209907) scale(0.132 -0.132)">
       <defs>
        <path id="DejaVuSans-2212" d="M 678 2272 
L 4684 2272 
L 4684 1741 
L 678 1741 
L 678 2272 
z
" transform="scale(0.015625)"/>
        <path id="DejaVuSans-37" d="M 525 4666 
L 3525 4666 
L 3525 4397 
L 1831 0 
L 1172 0 
L 2766 4134 
L 525 4134 
L 525 4666 
z
" transform="scale(0.015625)"/>
       </defs>
       <use xlink:href="#DejaVuSans-2212"/>
       <use xlink:href="#DejaVuSans-30" transform="translate(83.789062 0)"/>
       <use xlink:href="#DejaVuSans-2e" transform="translate(147.412109 0)"/>
       <use xlink:href="#DejaVuSans-37" transform="translate(179.199219 0)"/>
       <use xlink:href="#DejaVuSans-35" transform="translate(242.822266 0)"/>
      </g>
     </g>
    </g>
    <g id="ytick_2">
     <g id="line2d_11">
      <g>
       <use xlink:href="#m73cc482074" x="73.888312" y="237.823428" style="stroke: #000000"/>
      </g>
     </g>
     <g id="text_12">
      <!-- −0.50 -->
      <g transform="translate(25.1365 242.838396) scale(0.132 -0.132)">
       <use xlink:href="#DejaVuSans-2212"/>
       <use xlink:href="#DejaVuSans-30" transform="translate(83.789062 0)"/>
       <use xlink:href="#DejaVuSans-2e" transform="translate(147.412109 0)"/>
       <use xlink:href="#DejaVuSans-35" transform="translate(179.199219 0)"/>
       <use xlink:href="#DejaVuSans-30" transform="translate(242.822266 0)"/>
      </g>
     </g>
    </g>
    <g id="ytick_3">
     <g id="line2d_12">
      <g>
       <use xlink:href="#m73cc482074" x="73.888312" y="201.451917" style="stroke: #000000"/>
      </g>
     </g>
     <g id="text_13">
      <!-- −0.25 -->
      <g transform="translate(25.1365 206.466886) scale(0.132 -0.132)">
       <use xlink:href="#DejaVuSans-2212"/>
       <use xlink:href="#DejaVuSans-30" transform="translate(83.789062 0)"/>
       <use xlink:href="#DejaVuSans-2e" transform="translate(147.412109 0)"/>
       <use xlink:href="#DejaVuSans-32" transform="translate(179.199219 0)"/>
       <use xlink:href="#DejaVuSans-35" transform="translate(242.822266 0)"/>
      </g>
     </g>
    </g>
    <g id="ytick_4">
     <g id="line2d_13">
      <g>
       <use xlink:href="#m73cc482074" x="73.888312" y="165.080406" style="stroke: #000000"/>
      </g>
     </g>
     <g id="text_14">
      <!-- 0.00 -->
      <g transform="translate(36.197688 170.095375) scale(0.132 -0.132)">
       <use xlink:href="#DejaVuSans-30"/>
       <use xlink:href="#DejaVuSans-2e" transform="translate(63.623047 0)"/>
       <use xlink:href="#DejaVuSans-30" transform="translate(95.410156 0)"/>
       <use xlink:href="#DejaVuSans-30" transform="translate(159.033203 0)"/>
      </g>
     </g>
    </g>
    <g id="ytick_5">
     <g id="line2d_14">
      <g>
       <use xlink:href="#m73cc482074" x="73.888312" y="128.708896" style="stroke: #000000"/>
      </g>
     </g>
     <g id="text_15">
      <!-- 0.25 -->
      <g transform="translate(36.197688 133.723864) scale(0.132 -0.132)">
       <use xlink:href="#DejaVuSans-30"/>
       <use xlink:href="#DejaVuSans-2e" transform="translate(63.623047 0)"/>
       <use xlink:href="#DejaVuSans-32" transform="translate(95.410156 0)"/>
       <use xlink:href="#DejaVuSans-35" transform="translate(159.033203 0)"/>
      </g>
     </g>
    </g>
    <g id="ytick_6">
     <g id="line2d_15">
      <g>
       <use xlink:href="#m73cc482074" x="73.888312" y="92.337385" style="stroke: #000000"/>
      </g>
     </g>
     <g id="text_16">
      <!-- 0.50 -->
      <g transform="translate(36.197688 97.352354) scale(0.132 -0.132)">
       <use xlink:href="#DejaVuSans-30"/>
       <use xlink:href="#DejaVuSans-2e" transform="translate(63.623047 0)"/>
       <use xlink:href="#DejaVuSans-35" transform="translate(95.410156 0)"/>
       <use xlink:href="#DejaVuSans-30" transform="translate(159.033203 0)"/>
      </g>
     </g>
    </g>
    <g id="ytick_7">
     <g id="line2d_16">
      <g>
       <use xlink:href="#m73cc482074" x="73.888312" y="55.965874" style="stroke: #000000"/>
      </g>
     </g>
     <g id="text_17">
      <!-- 0.75 -->
      <g transform="translate(36.197688 60.980843) scale(0.132 -0.132)">
       <use xlink:href="#DejaVuSans-30"/>
       <use xlink:href="#DejaVuSans-2e" transform="translate(63.623047 0)"/>
       <use xlink:href="#DejaVuSans-37" transform="translate(95.410156 0)"/>
       <use xlink:href="#DejaVuSans-35" transform="translate(159.033203 0)"/>
      </g>
     </g>
    </g>
    <g id="ytick_8">
     <g id="line2d_17">
      <g>
       <use xlink:href="#m73cc482074" x="73.888312" y="19.594364" style="stroke: #000000"/>
      </g>
     </g>
     <g id="text_18">
      <!-- 1.00 -->
      <g transform="translate(36.197688 24.609332) scale(0.132 -0.132)">
       <use xlink:href="#DejaVuSans-31"/>
       <use xlink:href="#DejaVuSans-2e" transform="translate(63.623047 0)"/>
       <use xlink:href="#DejaVuSans-30" transform="translate(95.410156 0)"/>
       <use xlink:href="#DejaVuSans-30" transform="translate(159.033203 0)"/>
      </g>
     </g>
    </g>
    <g id="text_19">
     <!-- $\langle\Pi_0 \otimes Z\rangle$ -->
     <g transform="translate(18.14175 171.834) rotate(-90) scale(0.144 -0.144)">
      <defs>
       <path id="DejaVuSans-27e8" d="M 572 2006 
L 1453 4856 
L 1984 4856 
L 1103 2006 
L 1984 -844 
L 1453 -844 
L 572 2006 
z
" transform="scale(0.015625)"/>
       <path id="DejaVuSans-3a0" d="M 4184 4666 
L 4184 0 
L 3553 0 
L 3553 4134 
L 1259 4134 
L 1259 0 
L 628 0 
L 628 4666 
L 4184 4666 
z
" transform="scale(0.015625)"/>
       <path id="DejaVuSans-2297" d="M 3306 3522 
Q 3016 3644 2681 3644 
Q 2347 3644 2056 3522 
Q 1769 3400 1531 3163 
Q 1291 2922 1172 2634 
Q 1053 2347 1053 2006 
Q 1053 1675 1172 1387 
Q 1291 1100 1531 859 
Q 1769 622 2056 500 
Q 2347 378 2681 378 
Q 3016 378 3306 500 
Q 3594 622 3831 859 
Q 4072 1100 4190 1387 
Q 4309 1675 4309 2006 
Q 4309 2347 4190 2634 
Q 4072 2922 3831 3163 
Q 3594 3400 3306 3522 
z
M 1878 3956 
Q 2250 4113 2681 4113 
Q 3113 4113 3484 3956 
Q 3856 3800 4163 3494 
Q 4472 3184 4625 2813 
Q 4778 2444 4778 2006 
Q 4778 1578 4625 1206 
Q 4472 838 4163 528 
Q 3856 222 3484 65 
Q 3113 -91 2681 -91 
Q 2250 -91 1878 65 
Q 1506 222 1200 528 
Q 891 838 738 1206 
Q 584 1578 584 2006 
Q 584 2444 738 2813 
Q 891 3184 1200 3494 
Q 1506 3800 1878 3956 
z
M 3847 2794 
L 3056 2006 
L 3844 1219 
L 3469 844 
L 2681 1631 
L 1894 841 
L 1516 1219 
L 2306 2006 
L 1519 2794 
L 1894 3169 
L 2681 2381 
L 3469 3172 
L 3847 2794 
z
" transform="scale(0.015625)"/>
       <path id="DejaVuSans-Oblique-5a" d="M 838 4666 
L 4500 4666 
L 4409 4184 
L 794 531 
L 3769 531 
L 3669 0 
L -141 0 
L -50 481 
L 3566 4134 
L 738 4134 
L 838 4666 
z
" transform="scale(0.015625)"/>
       <path id="DejaVuSans-27e9" d="M 1925 2006 
L 1044 -844 
L 513 -844 
L 1394 2006 
L 513 4856 
L 1044 4856 
L 1925 2006 
z
" transform="scale(0.015625)"/>
      </defs>
      <use xlink:href="#DejaVuSans-27e8" transform="translate(0 0.125)"/>
      <use xlink:href="#DejaVuSans-3a0" transform="translate(39.013672 0.125)"/>
      <use xlink:href="#DejaVuSans-30" transform="translate(115.166016 -16.28125) scale(0.7)"/>
      <use xlink:href="#DejaVuSans-2297" transform="translate(181.918945 0.125)"/>
      <use xlink:href="#DejaVuSans-Oblique-5a" transform="translate(285.19043 0.125)"/>
      <use xlink:href="#DejaVuSans-27e9" transform="translate(353.696289 0.125)"/>
     </g>
    </g>
   </g>
   <g id="line2d_18">
    <defs>
     <path id="m410ec99b7e" d="M -0 3.394113 
L 2.036468 0 
L 0 -3.394113 
L -2.036468 -0 
z
" style="stroke: #017b92; stroke-linejoin: miter"/>
    </defs>
    <g clip-path="url(#p08707269e4)">
     <use xlink:href="#m410ec99b7e" x="90.281949" y="21.785418" style="fill: #017b92; stroke: #017b92; stroke-linejoin: miter"/>
     <use xlink:href="#m410ec99b7e" x="96.839403" y="38.039504" style="fill: #017b92; stroke: #017b92; stroke-linejoin: miter"/>
     <use xlink:href="#m410ec99b7e" x="103.396858" y="38.110769" style="fill: #017b92; stroke: #017b92; stroke-linejoin: miter"/>
     <use xlink:href="#m410ec99b7e" x="109.954312" y="31.380575" style="fill: #017b92; stroke: #017b92; stroke-linejoin: miter"/>
     <use xlink:href="#m410ec99b7e" x="116.511767" y="26.487352" style="fill: #017b92; stroke: #017b92; stroke-linejoin: miter"/>
     <use xlink:href="#m410ec99b7e" x="123.069222" y="36.494257" style="fill: #017b92; stroke: #017b92; stroke-linejoin: miter"/>
     <use xlink:href="#m410ec99b7e" x="129.626676" y="47.439287" style="fill: #017b92; stroke: #017b92; stroke-linejoin: miter"/>
     <use xlink:href="#m410ec99b7e" x="136.184131" y="54.053539" style="fill: #017b92; stroke: #017b92; stroke-linejoin: miter"/>
     <use xlink:href="#m410ec99b7e" x="142.741585" y="51.706827" style="fill: #017b92; stroke: #017b92; stroke-linejoin: miter"/>
     <use xlink:href="#m410ec99b7e" x="149.29904" y="47.447089" style="fill: #017b92; stroke: #017b92; stroke-linejoin: miter"/>
     <use xlink:href="#m410ec99b7e" x="155.856494" y="56.801128" style="fill: #017b92; stroke: #017b92; stroke-linejoin: miter"/>
     <use xlink:href="#m410ec99b7e" x="162.413949" y="57.310239" style="fill: #017b92; stroke: #017b92; stroke-linejoin: miter"/>
     <use xlink:href="#m410ec99b7e" x="168.971403" y="77.017208" style="fill: #017b92; stroke: #017b92; stroke-linejoin: miter"/>
     <use xlink:href="#m410ec99b7e" x="175.528858" y="94.822741" style="fill: #017b92; stroke: #017b92; stroke-linejoin: miter"/>
     <use xlink:href="#m410ec99b7e" x="182.086313" y="108.086638" style="fill: #017b92; stroke: #017b92; stroke-linejoin: miter"/>
     <use xlink:href="#m410ec99b7e" x="188.643767" y="127.554835" style="fill: #017b92; stroke: #017b92; stroke-linejoin: miter"/>
     <use xlink:href="#m410ec99b7e" x="195.201222" y="159.593165" style="fill: #017b92; stroke: #017b92; stroke-linejoin: miter"/>
     <use xlink:href="#m410ec99b7e" x="201.758676" y="176.063324" style="fill: #017b92; stroke: #017b92; stroke-linejoin: miter"/>
     <use xlink:href="#m410ec99b7e" x="208.316131" y="183.564289" style="fill: #017b92; stroke: #017b92; stroke-linejoin: miter"/>
     <use xlink:href="#m410ec99b7e" x="214.873585" y="200.412731" style="fill: #017b92; stroke: #017b92; stroke-linejoin: miter"/>
     <use xlink:href="#m410ec99b7e" x="221.43104" y="226.744857" style="fill: #017b92; stroke: #017b92; stroke-linejoin: miter"/>
     <use xlink:href="#m410ec99b7e" x="227.988494" y="240.655635" style="fill: #017b92; stroke: #017b92; stroke-linejoin: miter"/>
     <use xlink:href="#m410ec99b7e" x="234.545949" y="256.093593" style="fill: #017b92; stroke: #017b92; stroke-linejoin: miter"/>
     <use xlink:href="#m410ec99b7e" x="241.103403" y="267.481636" style="fill: #017b92; stroke: #017b92; stroke-linejoin: miter"/>
     <use xlink:href="#m410ec99b7e" x="247.660858" y="263.746805" style="fill: #017b92; stroke: #017b92; stroke-linejoin: miter"/>
     <use xlink:href="#m410ec99b7e" x="254.218312" y="257.662433" style="fill: #017b92; stroke: #017b92; stroke-linejoin: miter"/>
     <use xlink:href="#m410ec99b7e" x="260.775767" y="241.43052" style="fill: #017b92; stroke: #017b92; stroke-linejoin: miter"/>
     <use xlink:href="#m410ec99b7e" x="267.333222" y="229.699271" style="fill: #017b92; stroke: #017b92; stroke-linejoin: miter"/>
     <use xlink:href="#m410ec99b7e" x="273.890676" y="198.64266" style="fill: #017b92; stroke: #017b92; stroke-linejoin: miter"/>
     <use xlink:href="#m410ec99b7e" x="280.448131" y="179.07804" style="fill: #017b92; stroke: #017b92; stroke-linejoin: miter"/>
     <use xlink:href="#m410ec99b7e" x="287.005585" y="151.827328" style="fill: #017b92; stroke: #017b92; stroke-linejoin: miter"/>
     <use xlink:href="#m410ec99b7e" x="293.56304" y="138.027217" style="fill: #017b92; stroke: #017b92; stroke-linejoin: miter"/>
     <use xlink:href="#m410ec99b7e" x="300.120494" y="120.087775" style="fill: #017b92; stroke: #017b92; stroke-linejoin: miter"/>
     <use xlink:href="#m410ec99b7e" x="306.677949" y="105.936676" style="fill: #017b92; stroke: #017b92; stroke-linejoin: miter"/>
     <use xlink:href="#m410ec99b7e" x="313.235403" y="103.669588" style="fill: #017b92; stroke: #017b92; stroke-linejoin: miter"/>
     <use xlink:href="#m410ec99b7e" x="319.792858" y="111.258109" style="fill: #017b92; stroke: #017b92; stroke-linejoin: miter"/>
     <use xlink:href="#m410ec99b7e" x="326.350312" y="115.440479" style="fill: #017b92; stroke: #017b92; stroke-linejoin: miter"/>
     <use xlink:href="#m410ec99b7e" x="332.907767" y="130.199531" style="fill: #017b92; stroke: #017b92; stroke-linejoin: miter"/>
     <use xlink:href="#m410ec99b7e" x="339.465222" y="152.153295" style="fill: #017b92; stroke: #017b92; stroke-linejoin: miter"/>
     <use xlink:href="#m410ec99b7e" x="346.022676" y="179.367211" style="fill: #017b92; stroke: #017b92; stroke-linejoin: miter"/>
     <use xlink:href="#m410ec99b7e" x="352.580131" y="198.023455" style="fill: #017b92; stroke: #017b92; stroke-linejoin: miter"/>
     <use xlink:href="#m410ec99b7e" x="359.137585" y="205.111474" style="fill: #017b92; stroke: #017b92; stroke-linejoin: miter"/>
     <use xlink:href="#m410ec99b7e" x="365.69504" y="196.628862" style="fill: #017b92; stroke: #017b92; stroke-linejoin: miter"/>
     <use xlink:href="#m410ec99b7e" x="372.252494" y="202.380709" style="fill: #017b92; stroke: #017b92; stroke-linejoin: miter"/>
     <use xlink:href="#m410ec99b7e" x="378.809949" y="190.336299" style="fill: #017b92; stroke: #017b92; stroke-linejoin: miter"/>
     <use xlink:href="#m410ec99b7e" x="385.367403" y="175.332273" style="fill: #017b92; stroke: #017b92; stroke-linejoin: miter"/>
     <use xlink:href="#m410ec99b7e" x="391.924858" y="163.648902" style="fill: #017b92; stroke: #017b92; stroke-linejoin: miter"/>
     <use xlink:href="#m410ec99b7e" x="398.482313" y="141.754792" style="fill: #017b92; stroke: #017b92; stroke-linejoin: miter"/>
     <use xlink:href="#m410ec99b7e" x="405.039767" y="131.621604" style="fill: #017b92; stroke: #017b92; stroke-linejoin: miter"/>
     <use xlink:href="#m410ec99b7e" x="411.597222" y="128.217899" style="fill: #017b92; stroke: #017b92; stroke-linejoin: miter"/>
     <use xlink:href="#m410ec99b7e" x="418.154676" y="138.566946" style="fill: #017b92; stroke: #017b92; stroke-linejoin: miter"/>
    </g>
   </g>
   <g id="line2d_19">
    <path d="M 90.281949 19.594364 
L 93.593795 21.311801 
L 96.90564 23.010808 
L 100.217486 24.696238 
L 103.529332 26.37581 
L 106.841178 28.059924 
L 110.153023 29.76149 
L 113.464869 31.495748 
L 116.776715 33.280096 
L 120.08856 35.133902 
L 123.400406 37.078312 
L 126.712252 39.136036 
L 130.024098 41.331126 
L 133.335943 43.688721 
L 136.647789 46.234771 
L 139.959635 48.995725 
L 143.271481 51.998185 
L 146.583326 55.268518 
L 149.895172 58.832434 
L 153.207018 62.714507 
L 156.518863 66.93766 
L 159.830709 71.522603 
L 163.142555 76.487221 
L 166.454401 81.84593 
L 169.766246 87.608993 
L 173.078092 93.781806 
L 176.389938 100.364171 
L 179.701784 107.349561 
L 183.013629 114.724398 
L 186.325475 122.467351 
L 189.637321 130.548693 
L 192.949166 138.929729 
L 196.261012 147.562324 
L 199.572858 156.388559 
L 202.884704 165.340552 
L 206.196549 174.340473 
L 209.508395 183.30078 
L 212.820241 192.124727 
L 216.132087 200.707149 
L 219.443932 208.935571 
L 222.755778 216.69166 
L 226.067624 223.853027 
L 229.37947 230.295399 
L 232.691315 235.895143 
L 236.003161 240.532142 
L 239.315007 244.09298 
L 242.626852 246.47439 
L 245.938698 247.586907 
L 249.250544 247.358633 
L 252.56239 245.739022 
L 255.874235 242.702549 
L 259.186081 238.252137 
L 262.497927 232.422183 
L 265.809773 225.281013 
L 269.121618 216.932601 
L 272.433464 207.517382 
L 275.74531 197.21198 
L 279.057155 186.227723 
L 282.369001 174.807798 
L 285.680847 163.222978 
L 288.992693 151.765869 
L 292.304538 140.743697 
L 295.616384 130.469709 
L 298.92823 121.253354 
L 302.240076 113.389477 
L 305.551921 107.146832 
L 308.863767 102.756334 
L 312.175613 100.399504 
L 315.487459 100.197654 
L 318.799304 102.202387 
L 322.11115 106.388025 
L 325.422996 112.646549 
L 328.734841 120.78562 
L 332.046687 130.530162 
L 335.358533 141.527856 
L 338.670379 153.358764 
L 341.982224 165.549088 
L 345.29407 177.588848 
L 348.605916 188.953016 
L 351.917762 199.125376 
L 355.229607 207.624132 
L 358.541453 214.028045 
L 361.853299 218.001687 
L 365.165144 219.318265 
L 368.47699 217.87842 
L 371.788836 213.723455 
L 375.100682 207.041585 
L 378.412527 198.166095 
L 381.724373 187.564683 
L 385.036219 175.819741 
L 388.348065 163.599952 
L 391.65991 151.62418 
L 394.971756 140.619328 
L 398.283602 131.27445 
L 401.595447 124.193927 
L 404.907293 119.852952 
L 408.219139 118.558725 
L 411.530985 120.420747 
L 414.84283 125.333252 
L 418.154676 132.972218 
" clip-path="url(#p08707269e4)" style="fill: none; stroke: #017b92; stroke-width: 1.2; stroke-linecap: square"/>
   </g>
   <g id="line2d_20">
    <path d="M 196.840585 77.788781 
L 209.135812 77.788781 
" clip-path="url(#p08707269e4)" style="fill: none; stroke: #017b92; stroke-width: 1.2; stroke-linecap: square"/>
   </g>
   <g id="patch_3">
    <path d="M 73.888312 279.876 
L 73.888312 7.2 
" style="fill: none; stroke: #000000; stroke-linejoin: miter; stroke-linecap: square"/>
   </g>
   <g id="patch_4">
    <path d="M 434.548313 279.876 
L 434.548313 7.2 
" style="fill: none; stroke: #000000; stroke-linejoin: miter; stroke-linecap: square"/>
   </g>
   <g id="patch_5">
    <path d="M 73.888312 279.876 
L 434.548313 279.876 
" style="fill: none; stroke: #000000; stroke-linejoin: miter; stroke-linecap: square"/>
   </g>
   <g id="patch_6">
    <path d="M 73.888312 7.2 
L 434.548313 7.2 
" style="fill: none; stroke: #000000; stroke-linejoin: miter; stroke-linecap: square"/>
   </g>
   <g id="text_20">
    <!-- cos(0.834$\beta^2$)$e^{-\beta/3.403}$ -->
    <g style="fill: #017b92" transform="translate(213.234222 82.900781) scale(0.144 -0.144)">
     <defs>
      <path id="DejaVuSans-63" d="M 3122 3366 
L 3122 2828 
Q 2878 2963 2633 3030 
Q 2388 3097 2138 3097 
Q 1578 3097 1268 2742 
Q 959 2388 959 1747 
Q 959 1106 1268 751 
Q 1578 397 2138 397 
Q 2388 397 2633 464 
Q 2878 531 3122 666 
L 3122 134 
Q 2881 22 2623 -34 
Q 2366 -91 2075 -91 
Q 1284 -91 818 406 
Q 353 903 353 1747 
Q 353 2603 823 3093 
Q 1294 3584 2113 3584 
Q 2378 3584 2631 3529 
Q 2884 3475 3122 3366 
z
" transform="scale(0.015625)"/>
      <path id="DejaVuSans-6f" d="M 1959 3097 
Q 1497 3097 1228 2736 
Q 959 2375 959 1747 
Q 959 1119 1226 758 
Q 1494 397 1959 397 
Q 2419 397 2687 759 
Q 2956 1122 2956 1747 
Q 2956 2369 2687 2733 
Q 2419 3097 1959 3097 
z
M 1959 3584 
Q 2709 3584 3137 3096 
Q 3566 2609 3566 1747 
Q 3566 888 3137 398 
Q 2709 -91 1959 -91 
Q 1206 -91 779 398 
Q 353 888 353 1747 
Q 353 2609 779 3096 
Q 1206 3584 1959 3584 
z
" transform="scale(0.015625)"/>
      <path id="DejaVuSans-73" d="M 2834 3397 
L 2834 2853 
Q 2591 2978 2328 3040 
Q 2066 3103 1784 3103 
Q 1356 3103 1142 2972 
Q 928 2841 928 2578 
Q 928 2378 1081 2264 
Q 1234 2150 1697 2047 
L 1894 2003 
Q 2506 1872 2764 1633 
Q 3022 1394 3022 966 
Q 3022 478 2636 193 
Q 2250 -91 1575 -91 
Q 1294 -91 989 -36 
Q 684 19 347 128 
L 347 722 
Q 666 556 975 473 
Q 1284 391 1588 391 
Q 1994 391 2212 530 
Q 2431 669 2431 922 
Q 2431 1156 2273 1281 
Q 2116 1406 1581 1522 
L 1381 1569 
Q 847 1681 609 1914 
Q 372 2147 372 2553 
Q 372 3047 722 3315 
Q 1072 3584 1716 3584 
Q 2034 3584 2315 3537 
Q 2597 3491 2834 3397 
z
" transform="scale(0.015625)"/>
      <path id="DejaVuSans-28" d="M 1984 4856 
Q 1566 4138 1362 3434 
Q 1159 2731 1159 2009 
Q 1159 1288 1364 580 
Q 1569 -128 1984 -844 
L 1484 -844 
Q 1016 -109 783 600 
Q 550 1309 550 2009 
Q 550 2706 781 3412 
Q 1013 4119 1484 4856 
L 1984 4856 
z
" transform="scale(0.015625)"/>
      <path id="DejaVuSans-38" d="M 2034 2216 
Q 1584 2216 1326 1975 
Q 1069 1734 1069 1313 
Q 1069 891 1326 650 
Q 1584 409 2034 409 
Q 2484 409 2743 651 
Q 3003 894 3003 1313 
Q 3003 1734 2745 1975 
Q 2488 2216 2034 2216 
z
M 1403 2484 
Q 997 2584 770 2862 
Q 544 3141 544 3541 
Q 544 4100 942 4425 
Q 1341 4750 2034 4750 
Q 2731 4750 3128 4425 
Q 3525 4100 3525 3541 
Q 3525 3141 3298 2862 
Q 3072 2584 2669 2484 
Q 3125 2378 3379 2068 
Q 3634 1759 3634 1313 
Q 3634 634 3220 271 
Q 2806 -91 2034 -91 
Q 1263 -91 848 271 
Q 434 634 434 1313 
Q 434 1759 690 2068 
Q 947 2378 1403 2484 
z
M 1172 3481 
Q 1172 3119 1398 2916 
Q 1625 2713 2034 2713 
Q 2441 2713 2670 2916 
Q 2900 3119 2900 3481 
Q 2900 3844 2670 4047 
Q 2441 4250 2034 4250 
Q 1625 4250 1398 4047 
Q 1172 3844 1172 3481 
z
" transform="scale(0.015625)"/>
      <path id="DejaVuSans-29" d="M 513 4856 
L 1013 4856 
Q 1481 4119 1714 3412 
Q 1947 2706 1947 2009 
Q 1947 1309 1714 600 
Q 1481 -109 1013 -844 
L 513 -844 
Q 928 -128 1133 580 
Q 1338 1288 1338 2009 
Q 1338 2731 1133 3434 
Q 928 4138 513 4856 
z
" transform="scale(0.015625)"/>
      <path id="DejaVuSans-Oblique-65" d="M 3078 2063 
Q 3088 2113 3092 2166 
Q 3097 2219 3097 2272 
Q 3097 2653 2873 2875 
Q 2650 3097 2266 3097 
Q 1838 3097 1509 2826 
Q 1181 2556 1013 2059 
L 3078 2063 
z
M 3578 1613 
L 903 1613 
Q 884 1494 878 1425 
Q 872 1356 872 1306 
Q 872 872 1139 634 
Q 1406 397 1894 397 
Q 2269 397 2603 481 
Q 2938 566 3225 728 
L 3116 159 
Q 2806 34 2476 -28 
Q 2147 -91 1806 -91 
Q 1078 -91 686 257 
Q 294 606 294 1247 
Q 294 1794 489 2264 
Q 684 2734 1063 3103 
Q 1306 3334 1642 3459 
Q 1978 3584 2356 3584 
Q 2950 3584 3301 3228 
Q 3653 2872 3653 2272 
Q 3653 2128 3634 1964 
Q 3616 1800 3578 1613 
z
" transform="scale(0.015625)"/>
      <path id="DejaVuSans-2f" d="M 1625 4666 
L 2156 4666 
L 531 -594 
L 0 -594 
L 1625 4666 
z
" transform="scale(0.015625)"/>
     </defs>
     <use xlink:href="#DejaVuSans-63" transform="translate(0 0.092187)"/>
     <use xlink:href="#DejaVuSans-6f" transform="translate(54.980469 0.092187)"/>
     <use xlink:href="#DejaVuSans-73" transform="translate(116.162109 0.092187)"/>
     <use xlink:href="#DejaVuSans-28" transform="translate(168.261719 0.092187)"/>
     <use xlink:href="#DejaVuSans-30" transform="translate(207.275391 0.092187)"/>
     <use xlink:href="#DejaVuSans-2e" transform="translate(270.898438 0.092187)"/>
     <use xlink:href="#DejaVuSans-38" transform="translate(300.060547 0.092187)"/>
     <use xlink:href="#DejaVuSans-33" transform="translate(363.683594 0.092187)"/>
     <use xlink:href="#DejaVuSans-34" transform="translate(427.306641 0.092187)"/>
     <use xlink:href="#DejaVuSans-Oblique-3b2" transform="translate(490.929688 0.092187)"/>
     <use xlink:href="#DejaVuSans-32" transform="translate(562.283255 38.373437) scale(0.7)"/>
     <use xlink:href="#DejaVuSans-29" transform="translate(609.553763 0.092187)"/>
     <use xlink:href="#DejaVuSans-Oblique-65" transform="translate(648.567435 0.092187)"/>
     <use xlink:href="#DejaVuSans-2212" transform="translate(714.740768 38.373437) scale(0.7)"/>
     <use xlink:href="#DejaVuSans-Oblique-3b2" transform="translate(773.393112 38.373437) scale(0.7)"/>
     <use xlink:href="#DejaVuSans-2f" transform="translate(818.065964 38.373437) scale(0.7)"/>
     <use xlink:href="#DejaVuSans-33" transform="translate(841.649948 38.373437) scale(0.7)"/>
     <use xlink:href="#DejaVuSans-2e" transform="translate(886.186081 38.373437) scale(0.7)"/>
     <use xlink:href="#DejaVuSans-34" transform="translate(908.437057 38.373437) scale(0.7)"/>
     <use xlink:href="#DejaVuSans-30" transform="translate(952.97319 38.373437) scale(0.7)"/>
     <use xlink:href="#DejaVuSans-33" transform="translate(997.509323 38.373437) scale(0.7)"/>
    </g>
   </g>
  </g>
 </g>
 <defs>
  <clipPath id="p08707269e4">
   <rect x="73.888312" y="7.2" width="360.66" height="272.676"/>
  </clipPath>
 </defs>
</svg>
